<svg width="85" height="14" viewBox="0 0 85 14" fill="none" xmlns="http://www.w3.org/2000/svg">
<path d="M6.27201 0H0V14H2.30534V8.9H6.27201C9.8822 8.9 11.9387 6.97667 11.9387 4.38667C11.9387 1.79667 9.8822 0 6.27201 0ZM5.97438 7.70333H2.30534V1.20333H5.97438C8.41424 1.20333 9.62829 2.43833 9.62829 4.39333C9.62829 6.34833 8.40752 7.70333 5.97438 7.70333Z" fill="#333333"/>
<path d="M21.4543 0L15.2159 14H17.7214L19.5508 9.5H26.139L27.9584 14H30.4621L24.2506 0H21.4543ZM20.0351 8.3L22.8483 1.36333L25.6564 8.3H20.0351Z" fill="#333333"/>
<path d="M61.4455 0H55.1735V14H57.4788V8.9H61.4455C65.0557 8.9 67.1172 6.97667 67.1172 4.38667C67.1172 1.79667 65.0557 0 61.4455 0ZM61.1479 7.70333H57.4788V1.20333H61.1479C63.5877 1.20333 64.8018 2.43833 64.8018 4.39333C64.8018 6.34833 63.5877 7.71 61.1479 7.71" fill="#333333"/>
<path d="M43.0465 8.215C43.0465 8.215 42.7539 8.20333 42.6093 8.20333H42.2394V8.105H43.0129C46.3456 8.105 47.6874 6.285 47.6874 4.17C47.6874 1.75834 45.557 0.00333659 41.9703 0.00333659H35.7286V14H38.0339V8.895H41.4659C42.8935 8.895 45.214 8.76167 45.214 11.2817V14H47.7278V11.8333C47.7278 9.24 46.3826 8.22167 43.0532 8.22167L43.0465 8.215ZM41.7669 7.69H38.0339V1.19667H41.7198C44.2589 1.19667 45.3417 2.53 45.3417 4.32834C45.3417 6.36333 44.1882 7.68333 41.7669 7.68333" fill="#333333"/>
<path d="M82.4962 14H85L78.7885 0H75.9922L69.7538 14H72.2593L74.0887 9.5H80.6769L82.4962 14ZM74.5713 8.3L77.3862 1.36333L80.1943 8.3H74.5713Z" fill="#333333"/>
</svg>
